<?xml version="1.0" encoding="UTF-8"?>
<svg xmlns="http://www.w3.org/2000/svg" xmlns:xlink="http://www.w3.org/1999/xlink" width="193pt" height="193pt" viewBox="0 0 193 193" version="1.1">
<g id="surface1">
<path style=" stroke:none;fill-rule:evenodd;fill:rgb(100%,100%,100%);fill-opacity:1;" d="M 0 0.242188 L 192.757813 0.242188 L 192.757813 193 L 0 193 L 0 0.242188 "/>
<path style=" stroke:none;fill-rule:nonzero;fill:rgb(13.699341%,12.199402%,12.5%);fill-opacity:1;" d="M 172.328125 133.132813 C 170.441406 133.132813 168.96875 131.671875 168.96875 129.6875 C 168.96875 127.730469 170.441406 126.257813 172.328125 126.257813 C 174.195313 126.257813 175.667969 127.730469 175.667969 129.6875 C 175.667969 131.671875 174.195313 133.132813 172.328125 133.132813 Z M 137.671875 153 L 133.453125 153 C 125.714844 152.296875 121.597656 147.664063 121.597656 139.515625 C 121.597656 135.136719 122.84375 131.894531 125.578125 129.398438 C 128.152344 127.023438 131.542969 125.859375 135.945313 125.859375 C 139.183594 125.859375 141.835938 126.480469 143.390625 127.609375 C 144.714844 128.582031 145.492188 129.785156 146.625 132.519531 L 140.859375 134.980469 C 140.507813 133.339844 140.117188 132.597656 139.339844 131.933594 C 138.363281 131.152344 136.921875 130.679688 135.324219 130.679688 C 130.878906 130.679688 128.3125 134.003906 128.3125 139.75 C 128.3125 145.105469 130.878906 148.269531 135.285156 148.269531 C 136.882813 148.269531 138.324219 147.757813 139.339844 146.78125 C 140.003906 146.117188 140.394531 145.457031 140.859375 143.96875 L 146.664063 146.511719 C 145.457031 149.085938 144.519531 150.289063 142.847656 151.339844 C 141.449219 152.257813 139.757813 152.796875 137.671875 153 Z M 97.0625 153 L 92.890625 153 C 90.8125 152.792969 89.1875 152.253906 87.679688 151.304688 C 86.011719 150.257813 85.269531 149.363281 84.332031 147.261719 L 90.203125 144.960938 C 91.140625 147.222656 92.773438 148.316406 95.285156 148.316406 C 97.59375 148.316406 99.089844 147.183594 99.089844 145.429688 C 99.089844 144.335938 98.574219 143.632813 97.402344 143.007813 C 96.460938 142.496094 96.460938 142.496094 93.402344 141.640625 C 91.410156 141.050781 89.035156 139.726563 87.875 138.515625 C 86.710938 137.34375 85.929688 135.394531 85.929688 133.636719 C 85.929688 131.566406 86.9375 129.417969 88.609375 128.050781 C 90.398438 126.605469 92.894531 125.863281 96.105469 125.863281 C 101.183594 125.863281 104.101563 127.425781 105.585938 130.863281 L 100.136719 133.363281 C 99.359375 131.253906 97.910156 130.238281 95.753906 130.238281 C 93.789063 130.238281 92.265625 131.488281 92.265625 133.050781 C 92.265625 133.949219 92.8125 134.769531 93.714844 135.234375 C 94.539063 135.628906 94.539063 135.628906 98.027344 136.757813 C 100.449219 137.503906 102.234375 138.359375 103.402344 139.21875 C 104.921875 140.390625 105.855469 142.421875 105.855469 144.605469 C 105.855469 147.222656 104.609375 149.597656 102.394531 151.148438 C 100.953125 152.199219 99.257813 152.785156 97.0625 153 Z M 73.523438 153 L 69.351563 153 C 67.277344 152.792969 65.648438 152.253906 64.140625 151.304688 C 62.46875 150.257813 61.730469 149.363281 60.792969 147.261719 L 66.664063 144.960938 C 67.597656 147.222656 69.234375 148.316406 71.746094 148.316406 C 74.054688 148.316406 75.546875 147.183594 75.546875 145.429688 C 75.546875 144.335938 75.035156 143.632813 73.859375 143.007813 C 72.917969 142.496094 72.917969 142.496094 69.859375 141.640625 C 67.871094 141.050781 65.5 139.726563 64.335938 138.515625 C 63.167969 137.34375 62.390625 135.394531 62.390625 133.636719 C 62.390625 131.566406 63.402344 129.417969 65.074219 128.050781 C 66.859375 126.605469 69.355469 125.863281 72.566406 125.863281 C 77.644531 125.863281 80.566406 127.425781 82.042969 130.863281 L 76.597656 133.363281 C 75.816406 131.253906 74.367188 130.238281 72.214844 130.238281 C 70.25 130.238281 68.726563 131.488281 68.726563 133.050781 C 68.726563 133.949219 69.277344 134.769531 70.171875 135.234375 C 70.996094 135.628906 70.996094 135.628906 74.484375 136.757813 C 76.90625 137.503906 78.695313 138.359375 79.863281 139.21875 C 81.382813 140.390625 82.320313 142.421875 82.320313 144.605469 C 82.320313 147.222656 81.070313 149.597656 78.851563 151.148438 C 77.414063 152.199219 75.714844 152.785156 73.523438 153 Z M 25.902344 153 L 22.316406 153 C 20.476563 152.78125 19.066406 152.179688 18.128906 151.179688 C 17.308594 150.324219 16.882813 149.425781 16.257813 147.359375 L 22.414063 145.292969 C 22.804688 147.207031 23.625 148.023438 25.261719 148.023438 C 26.585938 148.023438 27.636719 147.359375 28.066406 146.191406 C 28.261719 145.566406 28.339844 144.941406 28.339844 143.148438 L 28.339844 126.492188 L 34.574219 126.492188 L 34.574219 143.148438 C 34.574219 147.046875 33.992188 148.921875 32.355469 150.441406 C 30.828125 151.839844 28.597656 152.722656 25.902344 153 Z M 172.328125 125.574219 C 170.058594 125.574219 168.136719 127.320313 168.136719 129.6875 C 168.136719 132.078125 170.058594 133.820313 172.328125 133.820313 C 174.578125 133.820313 176.496094 132.078125 176.496094 129.6875 C 176.496094 127.320313 174.578125 125.574219 172.328125 125.574219 Z M 171.457031 129.402344 L 171.457031 127.929688 L 172.4375 127.929688 C 172.941406 127.929688 173.476563 128.039063 173.476563 128.628906 C 173.476563 129.359375 172.929688 129.402344 172.316406 129.402344 Z M 174.230469 128.671875 C 174.230469 127.730469 173.671875 127.320313 172.546875 127.320313 L 170.734375 127.320313 L 170.734375 132.078125 L 171.457031 132.078125 L 171.457031 130.015625 L 172.285156 130.015625 L 173.539063 132.078125 L 174.347656 132.078125 L 172.996094 129.980469 C 173.691406 129.894531 174.230469 129.523438 174.230469 128.671875 Z M 110.589844 152.507813 L 116.824219 152.507813 L 116.824219 126.492188 L 110.589844 126.492188 Z M 157.046875 142.621094 L 160.59375 133.363281 L 163.789063 142.621094 Z M 157.277344 126.492188 L 147.070313 152.507813 L 153.382813 152.507813 L 155.453125 146.996094 L 165.074219 146.996094 L 167.023438 152.507813 L 173.882813 152.507813 L 164.53125 126.492188 Z M 91.800781 48.234375 L 98.175781 48.234375 L 98.175781 87.476563 C 97.652344 90.246094 96.558594 92.75 94.992188 94.765625 C 93.421875 92.746094 92.324219 90.238281 91.800781 87.460938 Z M 85.039063 111.640625 C 88.695313 111.640625 92.035156 111.003906 95.007813 109.875 C 97.964844 110.996094 101.296875 111.625 104.933594 111.625 C 123.175781 111.625 130.054688 99.015625 130.054688 89.210938 C 130.054688 87.941406 130.417969 87.308594 129.226563 87.308594 L 119.003906 87.308594 C 118.339844 87.308594 118.308594 87.519531 118.308594 88.363281 L 118.183594 89.226563 C 116.96875 93.855469 113.746094 98.621094 107.144531 99.515625 C 109.011719 96.15625 110.023438 92.335938 110.023438 88.347656 L 110.023438 48.21875 L 116.785156 48.21875 C 117.84375 48.21875 118.371094 47.074219 118.371094 46.242188 L 118.371094 37.433594 C 118.371094 36.597656 117.84375 36.214844 116.785156 36.214844 L 73.183594 36.214844 C 72.132813 36.214844 71.601563 36.609375 71.601563 37.445313 L 71.601563 46.257813 C 71.601563 47.089844 72.132813 48.234375 73.183594 48.234375 L 79.953125 48.234375 L 79.953125 88.332031 C 79.953125 92.335938 80.96875 96.167969 82.851563 99.53125 C 76.234375 98.648438 73.003906 93.875 71.792969 89.242188 L 71.664063 88.378906 C 71.664063 87.535156 71.636719 87.324219 70.96875 87.324219 L 60.746094 87.324219 C 59.554688 87.324219 59.917969 87.957031 59.917969 89.222656 C 59.917969 99.03125 66.792969 111.640625 85.039063 111.640625 Z M 46.714844 141.644531 L 57.316406 141.644531 L 57.316406 137.0625 L 46.714844 137.0625 L 46.714844 131.316406 L 57.316406 131.316406 L 57.316406 126.492188 L 40.480469 126.492188 L 40.480469 152.507813 L 58.875 152.507813 L 58.875 147.683594 L 46.714844 147.683594 L 46.714844 141.644531 "/>
</g>
</svg>
